<svg width="80" height="79" viewBox="0 0 80 79" fill="none" xmlns="http://www.w3.org/2000/svg">
<rect width="80" height="79" fill="#E5E5E5"/>
<g clip-path="url(#clip0_3_3)">
<rect width="1440" height="2485" transform="translate(-625 -2270)" fill="white"/>
<path d="M40.1213 78.4848C61.7943 78.4848 79.3638 60.9154 79.3638 39.2424C79.3638 17.5694 61.7943 0 40.1213 0C18.4483 0 0.878906 17.5694 0.878906 39.2424C0.878906 60.9154 18.4483 78.4848 40.1213 78.4848Z" fill="url(#paint0_linear_3_3)"/>
<path d="M48.4586 17.4408H31.8024C24.3725 17.4408 18.3379 23.4754 18.3379 30.9053V47.5615C18.3379 54.9914 24.3725 61.0261 31.8024 61.0261H48.4586C55.8885 61.0261 61.9231 54.9914 61.9231 47.5615V30.9053C61.9231 23.4754 55.8885 17.4408 48.4586 17.4408ZM57.0571 47.579C57.0571 52.323 53.2026 56.1949 48.4412 56.1949H31.785C27.041 56.1949 23.1691 52.3404 23.1691 47.579V30.9228C23.1691 26.1788 27.0235 22.3069 31.785 22.3069H48.4412C53.1852 22.3069 57.0571 26.1613 57.0571 30.9228V47.579Z" fill="white"/>
<path d="M40.1219 28.0941C33.9826 28.0941 28.9771 33.0997 28.9771 39.239C28.9771 45.3782 33.9826 50.3838 40.1219 50.3838C46.2612 50.3838 51.2667 45.3782 51.2667 39.239C51.2667 33.0997 46.2612 28.0941 40.1219 28.0941ZM40.1219 46.0061C36.3895 46.0061 33.3548 42.9714 33.3548 39.239C33.3548 35.5066 36.3895 32.4718 40.1219 32.4718C43.8543 32.4718 46.889 35.5066 46.889 39.239C46.889 42.9714 43.8543 46.0061 40.1219 46.0061Z" fill="white"/>
<path d="M52.1152 29.3161C53.142 29.1496 53.8394 28.1823 53.673 27.1556C53.5066 26.1288 52.5393 25.4313 51.5125 25.5978C50.4857 25.7642 49.7883 26.7315 49.9547 27.7583C50.1212 28.7851 51.0885 29.4825 52.1152 29.3161Z" fill="white"/>
</g>
<defs>
<linearGradient id="paint0_linear_3_3" x1="10.2411" y1="69.1227" x2="66.0089" y2="13.3548" gradientUnits="userSpaceOnUse">
<stop stop-color="#FEE411"/>
<stop offset="0.0518459" stop-color="#FEDB16"/>
<stop offset="0.1381" stop-color="#FEC125"/>
<stop offset="0.2481" stop-color="#FE983D"/>
<stop offset="0.3762" stop-color="#FE5F5E"/>
<stop offset="0.5" stop-color="#FE2181"/>
<stop offset="1" stop-color="#9000DC"/>
</linearGradient>
<clipPath id="clip0_3_3">
<rect width="1440" height="2485" fill="white" transform="translate(-625 -2270)"/>
</clipPath>
</defs>
</svg>
