<svg width="79" height="79" viewBox="0 0 79 79" fill="none" xmlns="http://www.w3.org/2000/svg">
<path fill-rule="evenodd" clip-rule="evenodd" d="M49.4332 26.1355L45.7395 26.1379C42.8429 26.1379 42.2813 27.5138 42.2813 29.5324V33.9864H49.1904L48.2903 40.9642H42.2813V58.8636H35.0778V40.9642H29.0541V33.9864H35.0778V28.8432C35.0778 22.871 38.7249 19.6212 44.0496 19.6212C46.6004 19.6212 48.793 19.8101 49.4332 19.8959V26.1355ZM39.2424 0C17.5708 0 0 17.5683 0 39.2424C0 60.9141 17.5708 78.4848 39.2424 78.4848C60.9165 78.4848 78.4848 60.9141 78.4848 39.2424C78.4848 17.5683 60.9165 0 39.2424 0Z" fill="#3B5998"/>
</svg>
